<svg width="1920" height="180" viewBox="0 0 1920 180" fill="none" xmlns="http://www.w3.org/2000/svg">
<mask id="mask0_221_1691" style="mask-type:alpha" maskUnits="userSpaceOnUse" x="0" y="0" width="1920" height="180">
<rect width="1920" height="180" fill="#C4C4C4"/>
</mask>
<g mask="url(#mask0_221_1691)">
<circle cx="21" cy="23.9092" r="1" fill="#5C8693"/>
<circle cx="114" cy="23.0908" r="1" fill="#5C8693"/>
<circle cx="57" cy="104.909" r="1" fill="#5C8693"/>
<circle cx="325" cy="82.8181" r="1" fill="#5C8693"/>
<circle cx="470" cy="99.1819" r="1" fill="#5C8693"/>
<circle cx="658" cy="53.3635" r="1" fill="#5C8693"/>
<circle cx="896" cy="103.273" r="1" fill="#5C8693"/>
<circle cx="1140" cy="28" r="1" fill="#5C8693"/>
<circle cx="1178" cy="41.9092" r="1" fill="#5C8693"/>
<circle cx="1204" cy="22.2727" r="1" fill="#5C8693"/>
<circle cx="1170" cy="10" r="1" fill="#5C8693"/>
<circle cx="1246" cy="7.54541" r="1" fill="#5C8693"/>
<circle cx="1217" cy="73" r="1" fill="#5C8693"/>
<circle cx="1390" cy="96.7271" r="1" fill="#5C8693"/>
<circle cx="1403" cy="92" r="1" fill="#5C8693"/>
<circle cx="1548" cy="56" r="1" fill="#5C8693"/>
<circle cx="190" cy="81.1819" r="1" fill="#5C8693"/>
<circle cx="72" cy="132.727" r="1" fill="#5C8693"/>
<circle cx="9" cy="154.818" r="1" fill="#5C8693"/>
<circle cx="251" cy="166.273" r="1" fill="#5C8693"/>
<circle cx="1101" cy="172.818" r="1" fill="#5C8693"/>
<circle cx="1340" cy="68.9092" r="1" fill="#5C8693"/>
<circle cx="1191" cy="127.818" r="1" fill="#5C8693"/>
<circle cx="1402" cy="62.3635" r="1" fill="#5C8693"/>
<circle cx="1410" cy="122.091" r="1" fill="#5C8693"/>
<circle cx="347" cy="95.9092" r="1" fill="#5C8693"/>
<circle cx="506" cy="115.545" r="1" fill="#5C8693"/>
<circle cx="461" cy="136.818" r="1" fill="#5C8693"/>
<circle cx="648" cy="145" r="1" fill="#5C8693"/>
<circle cx="847" cy="145.818" r="1" fill="#5C8693"/>
<circle cx="694" cy="69.7273" r="1" fill="#5C8693"/>
<circle cx="1001" cy="80.3635" r="1" fill="#5C8693"/>
<circle cx="1063" cy="112.273" r="1" fill="#5C8693"/>
<circle cx="1234" cy="78.7273" r="1" fill="#5C8693"/>
<circle cx="1392" cy="154.818" r="1" fill="#5C8693"/>
<circle cx="94" cy="52.5454" r="1" fill="#5C8693"/>
<circle cx="362" cy="30.4546" r="1" fill="#5C8693"/>
<circle cx="507" cy="46.8181" r="1" fill="#5C8693"/>
<circle cx="695" cy="1" r="1" fill="#5C8693"/>
<circle cx="933" cy="50.9092" r="1" fill="#5C8693"/>
<circle cx="1078" cy="6.72729" r="1" fill="#5C8693"/>
<circle cx="1254" cy="20.6365" r="1" fill="#5C8693"/>
<circle cx="1429" cy="103.273" r="1" fill="#5C8693"/>
<circle cx="187" cy="51.7273" r="1" fill="#5C8693"/>
<circle cx="104" cy="140.909" r="1" fill="#5C8693"/>
<circle cx="263" cy="109.818" r="1" fill="#5C8693"/>
<circle cx="166" cy="149.909" r="1" fill="#5C8693"/>
<circle cx="457" cy="129.455" r="1" fill="#5C8693"/>
<circle cx="579" cy="144.182" r="1" fill="#5C8693"/>
<circle cx="534" cy="165.455" r="1" fill="#5C8693"/>
<circle cx="721" cy="173.636" r="1" fill="#5C8693"/>
<circle cx="923" cy="168.727" r="1" fill="#5C8693"/>
<circle cx="767" cy="98.3635" r="1" fill="#5C8693"/>
<circle cx="1005" cy="148.273" r="1" fill="#5C8693"/>
<circle cx="1150" cy="104.091" r="1" fill="#5C8693"/>
<circle cx="1326" cy="118" r="1" fill="#5C8693"/>
<circle cx="249" cy="36.1819" r="1" fill="#5C8693"/>
<circle cx="404" cy="19.8181" r="1" fill="#5C8693"/>
<circle cx="45" cy="37" r="1" fill="#5C8693"/>
<circle cx="28" cy="66.4546" r="1" fill="#5C8693"/>
<circle cx="118" cy="65.6365" r="1" fill="#5C8693"/>
<circle cx="34" cy="99.1819" r="1" fill="#5C8693"/>
<circle cx="288" cy="109" r="1" fill="#5C8693"/>
<circle cx="434" cy="132.727" r="1" fill="#5C8693"/>
<circle cx="766" cy="135.182" r="1" fill="#5C8693"/>
<circle cx="1126" cy="117.182" r="1" fill="#5C8693"/>
<circle cx="1365" cy="13.2727" r="1" fill="#5C8693"/>
<circle cx="1402" cy="152.364" r="1" fill="#5C8693"/>
<circle cx="1281" cy="131.909" r="1" fill="#5C8693"/>
<circle cx="1293" cy="61.5454" r="1" fill="#5C8693"/>
<circle cx="1325" cy="9.18188" r="1" fill="#5C8693"/>
<circle cx="1435" cy="56.6365" r="1" fill="#5C8693"/>
<circle cx="1427" cy="6.72729" r="1" fill="#5C8693"/>
<circle cx="1441" cy="47.6365" r="1" fill="#5C8693"/>
<circle cx="273" cy="49.2727" r="1" fill="#5C8693"/>
<circle cx="428" cy="32.9092" r="1" fill="#5C8693"/>
<circle cx="60" cy="24.7273" r="1" fill="#5C8693"/>
<circle cx="153" cy="23.9092" r="1" fill="#5C8693"/>
<circle cx="80" cy="5.09082" r="1" fill="#5C8693"/>
<circle cx="44" cy="13.2727" r="1" fill="#5C8693"/>
<circle cx="96" cy="105.727" r="1" fill="#5C8693"/>
<circle cx="364" cy="83.6365" r="1" fill="#5C8693"/>
<circle cx="542" cy="80.3635" r="1" fill="#5C8693"/>
<circle cx="719" cy="55.8181" r="1" fill="#5C8693"/>
<circle cx="935" cy="104.091" r="1" fill="#5C8693"/>
<circle cx="1076" cy="80.3635" r="1" fill="#5C8693"/>
<circle cx="1340" cy="101.636" r="1" fill="#5C8693"/>
<circle cx="1353" cy="96.9092" r="1" fill="#5C8693"/>
<circle cx="1498" cy="60.9092" r="1" fill="#5C8693"/>
<circle cx="1352" cy="148.273" r="1" fill="#5C8693"/>
<circle cx="229" cy="82" r="1" fill="#5C8693"/>
<circle cx="132" cy="122.091" r="1" fill="#5C8693"/>
<circle cx="400" cy="100" r="1" fill="#5C8693"/>
<circle cx="545" cy="116.364" r="1" fill="#5C8693"/>
<circle cx="500" cy="137.636" r="1" fill="#5C8693"/>
<circle cx="687" cy="145.818" r="1" fill="#5C8693"/>
<circle cx="889" cy="140.909" r="1" fill="#5C8693"/>
<circle cx="733" cy="70.5454" r="1" fill="#5C8693"/>
<circle cx="971" cy="120.455" r="1" fill="#5C8693"/>
<circle cx="1116" cy="76.2727" r="1" fill="#5C8693"/>
<circle cx="1292" cy="90.1819" r="1" fill="#5C8693"/>
<circle cx="1431" cy="155.636" r="1" fill="#5C8693"/>
<circle cx="1444" cy="150.909" r="1" fill="#5C8693"/>
<circle cx="1589" cy="114.909" r="1" fill="#5C8693"/>
<circle cx="133" cy="53.3635" r="1" fill="#5C8693"/>
<circle cx="288" cy="37" r="1" fill="#5C8693"/>
<circle cx="292" cy="16.5454" r="1" fill="#5C8693"/>
<circle cx="261" cy="8.36353" r="1" fill="#5C8693"/>
<circle cx="200" cy="1" r="1" fill="#5C8693"/>
<circle cx="190" cy="14.9092" r="1" fill="#5C8693"/>
<circle cx="227" cy="14.9092" r="1" fill="#5C8693"/>
<circle cx="472" cy="19.8181" r="1" fill="#5C8693"/>
<circle cx="573" cy="18.1819" r="1" fill="#5C8693"/>
<circle cx="520" cy="3.45459" r="1" fill="#5C8693"/>
<circle cx="534" cy="13.2727" r="1" fill="#5C8693"/>
<circle cx="628" cy="15.7273" r="1" fill="#5C8693"/>
<circle opacity="0.22" cx="816" cy="49" r="1" fill="white"/>
<circle cx="676" cy="3.45459" r="1" fill="#5C8693"/>
</g>
</svg>
