<svg width="24" height="24" viewBox="0 0 24 24" fill="none" xmlns="http://www.w3.org/2000/svg">
<path d="M11.9998 9C12.7954 9 13.5585 9.31607 14.1211 9.87868C14.6837 10.4413 14.9998 11.2044 14.9998 12C14.9998 12.7956 14.6837 13.5587 14.1211 14.1213C13.5585 14.6839 12.7954 15 11.9998 15C11.2041 15 10.441 14.6839 9.87843 14.1213C9.31583 13.5587 8.99976 12.7956 8.99976 12C8.99976 11.2044 9.31583 10.4413 9.87843 9.87868C10.441 9.31607 11.2041 9 11.9998 9ZM11.9998 4.5C16.9998 4.5 21.2698 7.61 22.9998 12C21.2698 16.39 16.9998 19.5 11.9998 19.5C6.99976 19.5 2.72976 16.39 0.999756 12C2.72976 7.61 6.99976 4.5 11.9998 4.5ZM3.17976 12C3.98801 13.6503 5.24306 15.0407 6.80223 16.0133C8.36141 16.9858 10.1622 17.5013 11.9998 17.5013C13.8374 17.5013 15.6381 16.9858 17.1973 16.0133C18.7564 15.0407 20.0115 13.6503 20.8198 12C20.0115 10.3497 18.7564 8.95925 17.1973 7.98675C15.6381 7.01424 13.8374 6.49868 11.9998 6.49868C10.1622 6.49868 8.36141 7.01424 6.80223 7.98675C5.24306 8.95925 3.98801 10.3497 3.17976 12Z" fill="#D0DCE0"/>
</svg>
