<svg width="24" height="24" viewBox="0 0 24 24" fill="none" xmlns="http://www.w3.org/2000/svg">
<path d="M22 5.91205C21.2639 6.24665 20.4704 6.46654 19.6482 6.5717C20.4895 6.06501 21.1396 5.26195 21.4455 4.29637C20.652 4.77438 19.7725 5.10899 18.8451 5.30019C18.0899 4.47801 17.0287 4 15.8241 4C13.5774 4 11.7419 5.83556 11.7419 8.10134C11.7419 8.42639 11.7801 8.74187 11.847 9.03824C8.4436 8.86616 5.413 7.23136 3.39579 4.75526C3.04207 5.35755 2.8413 6.06501 2.8413 6.81071C2.8413 8.23518 3.55832 9.49713 4.6673 10.2141C3.98853 10.2141 3.35755 10.0229 2.80306 9.73614V9.76482C2.80306 11.7533 4.21797 13.4168 6.09178 13.7897C5.49018 13.9543 4.8586 13.9772 4.24665 13.8566C4.50632 14.6716 5.01485 15.3847 5.70078 15.8957C6.38671 16.4067 7.21553 16.69 8.07075 16.7055C6.62106 17.8532 4.82409 18.4735 2.97514 18.4646C2.6501 18.4646 2.32505 18.4455 2 18.4073C3.81644 19.5736 5.97706 20.2524 8.29063 20.2524C15.8241 20.2524 19.9637 14 19.9637 8.57935C19.9637 8.39771 19.9637 8.22562 19.9541 8.04398C20.7572 7.47036 21.4455 6.74379 22 5.91205Z" fill="#5C8693"/>
</svg>
